<svg xmlns="http://www.w3.org/2000/svg" width="512" height="512" class="fl-svgdocument" overflow="visible">
  <path fill="rgba(255,192,74,0)" d="M48 165.39h181.22v181.22H48z"/>
  <path d="M223.748 218.97a13.038 13.038 0 00-5.548-8.37c-4.54-3.06-10.57-2.96-15 .239-.182.13-.4.185-.619.187a.99.99 0 01-.955-1.025l.535-14.848a2.623 2.623 0 00-2.362-2.705l-14.765-1.47a4.968 4.968 0 00-5.428 4.448 4.98 4.98 0 00.346 2.368 7.465 7.465 0 01-.729 7.027c-3.522 5.21-10.205 7.052-15.934 4.36-.862-.404-1.516-1.12-1.842-2.015s-.281-1.864.121-2.728a150.173 150.173 0 003.44-7.95 4.71 4.71 0 00-2.629-6.11 4.807 4.807 0 00-2.144-.317l-21.193 1.824c-.073.007-.132.045-.204.057-.133-.008-.264-.019-.4-.007l-22.733 1.805a2.875 2.875 0 01-2.877-3.926 148.377 148.377 0 013.397-7.853c1.235-2.637.115-5.832-2.524-7.138-6.434-3.092-14.304-.96-18.304 4.954a9.303 9.303 0 00-.535 9.542 2.967 2.967 0 01-2.924 4.334l-16.476-1.64a2.625 2.625 0 00-2.882 2.52l-.53 15.346a4.188 4.188 0 001.126 3.027 4.188 4.188 0 002.936 1.343 4.247 4.247 0 002.62-.794 9.931 9.931 0 0111.312-.182c4.523 3.049 5.724 9.206 2.678 13.73-3.047 4.522-9.207 5.728-13.73 2.68a4.563 4.563 0 00-3.451-.701 4.57 4.57 0 00-2.937 1.946 4.627 4.627 0 00-.771 2.912l1.62 21.674c.005.077.045.14.057.213-.01.135-.02.272-.012.408l1.656 21.606c-6.639-4.472-15.679-2.711-20.15 3.931a14.425 14.425 0 00-2.21 10.89 14.421 14.421 0 006.14 9.26c4.793 3.23 11.092 3.28 15.926.193l-.58 16.114a2.622 2.622 0 002.362 2.704L93.39 322.5a6.14 6.14 0 004.543-1.371 6.152 6.152 0 002.24-4.182 6.173 6.173 0 00-.678-3.49 6.08 6.08 0 01.35-6.234c3.134-4.634 9.089-6.27 14.014-3.964.047.027.124.064.173.089.524.245.921.68 1.119 1.224a2.156 2.156 0 01-.073 1.658 151.638 151.638 0 00-3.472 8.025 6.106 6.106 0 003.412 7.925 6.143 6.143 0 002.776.409l21.074-1.814c.08-.007.145-.049.223-.063.15.01.301.016.452-.001l22.746-2.431c.225-.02.454.012.67.1.365.144.652.424.807.785.156.362.163.762.016 1.13a146.273 146.273 0 01-3.363 7.777c-1.558 3.326-.142 7.352 3.176 8.985a15.714 15.714 0 006.83 1.553c5.162 0 10.216-2.5 13.244-6.98a10.691 10.691 0 001.044-10.052 1.739 1.739 0 011.777-2.389l14.489 1.443a2.624 2.624 0 002.882-2.515l.605-16.8c.023-.692-.283-1.504-.755-2.011s-1.263-.87-1.955-.897c-.602-.05-1.284.187-1.758.532a11.334 11.334 0 01-12.912.206c-5.163-3.479-6.532-10.51-3.055-15.672a11.214 11.214 0 017.202-4.773 11.227 11.227 0 018.471 1.72 3.211 3.211 0 004.45-.88 3.216 3.216 0 00.53-2.017l-1.627-21.778c-.006-.077-.046-.14-.058-.214.01-.134.023-.27.012-.409l-1.609-21.523a1.358 1.358 0 01.233-.871c.203-.303.514-.51.873-.58a1.36 1.36 0 011.03.21 13.03 13.03 0 009.84 1.996c3.44-.67 6.412-2.64 8.369-5.546a13.01 13.01 0 002-9.84zm-88.343 96.218l-18.213 1.544a.232.232 0 01-.131-.3c1.03-2.588 2.15-5.181 3.337-7.712a7.986 7.986 0 00.274-6.147c-.733-2.017-2.207-3.629-4.006-4.465a2.14 2.14 0 00-.168-.086c-7.7-3.615-16.744-1.13-21.508 5.917a11.943 11.943 0 00-.686 12.245c.03.055.042.12.035.184-.017.182-.182.294-.362.297l-13.718-1.367.499-13.874a5.464 5.464 0 00-5.263-5.652 5.536 5.536 0 00-3.387 1.028 8.686 8.686 0 01-9.892.159c-3.956-2.663-5.005-8.052-2.342-12.006a8.59 8.59 0 015.518-3.659 8.605 8.605 0 016.488 1.317 5.846 5.846 0 008.106-1.579 5.852 5.852 0 00.983-3.7l-1.355-18.144h55.79v56zm81.48-89.655c-2.235 3.318-6.75 4.196-10.066 1.964a7.247 7.247 0 00-10.05 1.96 7.27 7.27 0 00-1.215 4.584l1.348 18.037h-54.39V197.48l16.331-1.404a146.366 146.366 0 01-2.586 5.878 9.373 9.373 0 00-.326 7.214 9.39 9.39 0 004.9 5.343c8.324 3.907 18.105 1.219 23.257-6.403a13.332 13.332 0 001.777-11.15l10.324 1.027-.425 11.805a6.82 6.82 0 001.833 4.918 6.82 6.82 0 004.772 2.183 6.823 6.823 0 004.259-1.29 7.283 7.283 0 018.295-.134c3.314 2.234 4.195 6.75 1.962 10.065z" fill="tomato"/>
  <path font-size="100" letter-spacing="0" font-family="Holtwood One SC" fill="tomato" d="M274.74 224.79v8.521l8.489-2.026v11.045l-8.489-2.026v6.117l3.995.901v13.424H250.77V247.2l3.995-.78v-19.227l-3.995-.78v-13.608h38.608v15.98h-5.242q-.747-.684-1.7-1.407-.952-.715-2.122-1.29-1.17-.582-2.563-.94-1.387-.358-3.01-.358zm18.792 4.309V216.8h26.277v12.298l-3.745.716v17.757l3.745.722v12.452h-26.277v-12.452l3.745-.722v-17.757l-3.745-.716zm81.111 24.436v7.21h-18.658q-.876-1.623-1.815-3.451-.933-1.822-1.81-3.822-.875-1.995-1.635-4.117-.767-2.122-1.298-4.372h-1.03v15.763h-22.53v-12.452l3.745-.722v-17.757l-3.746-.716V216.8h25.562q5.088 0 8.782.434 3.701.441 6.277 1.285 2.57.838 4.161 2.04 1.592 1.2 2.487 2.716.888 1.515 1.202 3.324.306 1.809.306 3.841 0 2.058-.39 3.746-.39 1.681-1.387 3.087-.997 1.406-2.729 2.576-1.732 1.17-4.417 2.199.563 1.125 1.668 2.672 1.113 1.54 2.423 3.151 1.31 1.605 2.602 3.107 1.297 1.495 2.23 2.556zm-26.245-28.367v11.358q1.72 0 3.106-.172 1.387-.173 2.372-.748.984-.575 1.515-1.7.53-1.125.53-3.03 0-1.873-.53-2.998-.53-1.119-1.515-1.732-.985-.607-2.372-.793-1.387-.185-3.106-.185zm69.756 21.752q0 2.902-.825 5.132-.83 2.231-2.25 3.874-1.419 1.636-3.368 2.73-1.95 1.092-4.2 1.764-2.25.67-4.698.78-2.448.108-4.883.108-3.369 0-6.086-.16-2.716-.153-4.851-.684-2.141-.53-3.778-1.17-1.643-.639-2.889-1.265v-10.828h8.834q1.31 2.058 2.998 3.023 1.68.972 3.464.972.53 0 1.183-.096.658-.09 1.22-.594.563-.499.953-1.54.39-1.05.39-2.954-2.531-.217-5.012-.64-2.48-.421-4.742-1.137-2.263-.716-4.2-1.828-1.937-1.106-3.356-2.685-1.419-1.572-2.23-3.713-.812-2.135-.812-4.916 0-3.183.811-5.567.812-2.39 2.218-4.104 1.4-1.72 3.324-2.844 1.918-1.119 4.136-1.777 2.212-.659 4.615-.92 2.403-.27 4.807-.27 3.4 0 6.104.346 2.697.345 4.839.876 2.135.53 3.777 1.17 1.637.639 2.915 1.233v10.924h-9.454q-1.188-2.25-2.716-3.28-1.528-1.028-3.126-1.028-.53 0-1.214.172-.684.173-1.279.761-.594.594-.997 1.751-.409 1.157-.409 3.12 5.152.191 9.038 1.093 3.887.907 6.507 2.697 2.621 1.796 3.931 4.622 1.31 2.825 1.31 6.852zm15.17.652v-19.163q-1.623 0-2.876.44-1.246.435-2.09 1.094-.843.652-1.278 1.419-.435.76-.435 1.419h-5.216V216.8H464v15.98h-5.21q0-.659-.434-1.42-.441-.766-1.285-1.418-.837-.659-2.09-1.093-1.247-.441-2.87-.441v19.163l3.746.722v12.452h-26.278v-12.452l3.746-.722zM293.59 298.55q-.033 3.093-.89 5.477-.862 2.39-2.39 4.123-1.528 1.732-3.586 2.934-2.064 1.202-4.436 1.937-2.371.728-4.98.933-2.6.204-5.221.204-4.75 0-8.336-.377-2.058-.25-6.149-1.374-3.343-.901-5.241-1.898v-12.33h9.39q1.623 2.243 3.669 3.304 2.045 1.061 4.2 1.061.562 0 1.246-.09.69-.095 1.297-.53.607-.44 1.03-1.374.421-.94.421-2.62-2.684-.25-5.324-.717-2.634-.473-5.037-1.285-2.404-.811-4.48-2.039-2.078-1.233-3.587-2.985-1.515-1.745-2.378-4.103-.856-2.359-.856-5.446 0-3.311.876-5.823.875-2.512 2.384-4.334 1.515-1.828 3.56-3.03 2.045-1.202 4.404-1.918 2.352-.722 4.896-.907 2.544-.186 5.076-.186 3.681 0 6.628.263 2.953.268 5.325.83 2.371.563 4.193 1.266 1.828.697 3.266 1.355v12.17h-9.396q-1.592-2.243-3.541-3.304-1.95-1.061-4.014-1.061-.563 0-1.279.14-.716.141-1.342.652-.62.518-1.061 1.503-.435.977-.435 2.665 5.459.185 9.614 1.189 4.148.997 6.91 3.01 2.76 2.014 4.167 5.146 1.406 3.138 1.406 7.568zm57.334 8.68v6.366h-21.068l-8.303-18.415v18.415H299.02v-12.452l3.746-.722v-17.757l-3.746-.716v-12.298h22.532v17.54l8.303-17.54h20.224v7.926q-1.84 1.56-3.42 3.28-1.572 1.712-2.946 3.464-1.374 1.745-2.531 3.432-1.151 1.688-2.09 3.215 1.22 1.937 2.588 4.04 1.374 2.11 2.857 4.231 1.483 2.123 3.094 4.168 1.604 2.045 3.292 3.822zm3.278-25.28V269.65h26.277v12.298l-3.745.716v17.757l3.745.722v12.452h-26.277v-12.452l3.746-.722v-17.757l-3.746-.716zm54.834.715v18.946q1.31 0 2.5-.358 1.182-.358 2.198-.94 1.016-.575 1.841-1.278.825-.703 1.451-1.42h5.216v15.98h-35.706v-12.45l3.746-.723v-17.757l-3.746-.716v-12.298h26.278v12.298l-3.778.716zm39.919 0v18.946q1.31 0 2.499-.358 1.182-.358 2.199-.94 1.016-.575 1.84-1.278.825-.703 1.452-1.42h5.215v15.98h-35.705v-12.45l3.746-.723v-17.757l-3.746-.716v-12.298h26.277v12.298l-3.777.716z"/>
</svg>
